<svg width="41.000000" height="35.000000" viewBox="0 0 41 35" fill="none" xmlns="http://www.w3.org/2000/svg" xmlns:xlink="http://www.w3.org/1999/xlink">
	<desc>
			Created with Pixso.
	</desc>
	<defs/>
	<path id="Vector" d="M33.09 4.55C32.09 3.39 30.76 2.57 29.27 2.2C27.79 1.83 26.23 1.92 24.8 2.47C23.37 3.01 22.14 3.99 21.28 5.25C20.42 6.52 19.97 8.02 20 9.55L20 11.21C17.07 11.29 14.16 10.64 11.55 9.32C8.93 8 6.68 6.06 5 3.66C5 3.66 -1.67 18.66 13.33 25.33C9.9 27.66 5.81 28.83 1.66 28.66C16.66 37 35 28.66 35 9.5C34.99 9.03 34.95 8.57 34.86 8.11C36.56 6.43 37.76 4.32 38.33 2C36.73 3.12 34.97 3.98 33.09 4.55Z" stroke="#000000" stroke-opacity="1.000000" stroke-width="4.000000" stroke-linejoin="round"/>
</svg>
